<?xml version="1.0" standalone="no"?>
<!DOCTYPE svg PUBLIC "-//W3C//DTD SVG 20010904//EN"
 "http://www.w3.org/TR/2001/REC-SVG-20010904/DTD/svg10.dtd">
<svg version="1.0" xmlns="http://www.w3.org/2000/svg"
 width="400.000000pt" height="400.000000pt" viewBox="0 0 400.000000 400.000000"
 preserveAspectRatio="xMidYMid meet">
<metadata>
Created by potrace 1.14, written by Peter Selinger 2001-2017
</metadata>
<g transform="translate(0.000000,400.000000) scale(0.100000,-0.100000)"
fill="#000000" stroke="none">
<path d="M2150 3920 c-6 -11 -8 -20 -6 -20 3 0 10 9 16 20 6 11 8 20 6 20 -3
0 -10 -9 -16 -20z"/>
<path d="M2458 3868 c12 -13 22 -30 22 -36 0 -7 5 -12 11 -12 14 0 -26 63 -43
69 -7 2 -3 -7 10 -21z"/>
<path d="M1741 3853 c7 -12 15 -20 18 -17 3 2 -3 12 -13 22 -17 16 -18 16 -5
-5z"/>
<path d="M2200 3773 c-30 -25 -55 -50 -56 -56 -1 -7 15 -13 37 -13 22 -1 36 2
33 7 -3 5 -19 9 -35 9 l-31 0 50 40 c43 33 71 61 60 59 -2 0 -28 -20 -58 -46z"/>
<path d="M2063 3798 c-43 -57 -66 -91 -58 -86 12 7 78 98 72 98 -3 0 -9 -6
-14 -12z"/>
<path d="M2410 3744 c-59 -60 -62 -64 -29 -48 20 11 35 22 33 25 -2 3 13 25
32 48 20 22 34 41 32 41 -2 0 -33 -30 -68 -66z"/>
<path d="M1781 3750 c-13 -11 -19 -20 -14 -20 6 0 18 9 28 20 23 25 17 25 -14
0z"/>
<path d="M1615 3696 c-27 -24 -48 -46 -45 -49 3 -2 27 18 55 44 62 61 57 63
-10 5z"/>
<path d="M1817 3693 c-4 -3 -4 -18 -2 -32 5 -22 4 -23 -4 -6 -8 18 -11 15 -29
-25 -30 -66 -32 -95 -7 -95 11 0 21 -6 21 -12 1 -7 2 -17 3 -23 2 -16 38 -11
52 8 13 15 12 16 -3 3 -10 -7 -18 -9 -18 -4 0 4 34 42 76 83 41 41 80 84 86
95 12 23 -78 -65 -139 -137 l-41 -47 -5 27 c-3 15 1 45 8 67 21 65 26 93 16
99 -4 3 -11 3 -14 -1z"/>
<path d="M2039 3669 c-19 -16 -20 -18 -4 -10 34 17 51 31 39 31 -7 0 -22 -9
-35 -21z"/>
<path d="M2630 3651 c0 -17 88 -89 123 -100 46 -16 85 -10 47 7 -14 6 -21 11
-15 11 5 1 -13 13 -40 27 -28 15 -61 35 -74 45 -26 20 -41 24 -41 10z"/>
<path d="M1488 3638 c15 -18 7 -62 -9 -52 -5 3 -8 2 -7 -3 6 -23 -24 -53 -55
-54 -30 0 -31 -1 -10 -11 39 -19 109 23 148 87 11 19 3 13 -25 -18 -48 -54
-61 -56 -30 -5 l20 35 -22 19 c-17 14 -19 15 -10 2z"/>
<path d="M2335 3606 c10 -14 21 -23 26 -20 13 8 12 10 -17 29 l-25 16 16 -25z"/>
<path d="M2180 3600 c0 -5 9 -10 19 -10 53 0 190 -236 191 -329 0 -19 -4 -22
-22 -18 -13 3 -49 9 -81 12 -48 6 -62 12 -79 36 -19 25 -36 35 -90 53 -10 3
-18 1 -18 -4 0 -6 12 -10 26 -10 19 0 47 -22 111 -90 47 -49 91 -90 97 -90 6
0 2 7 -8 15 -11 8 -17 17 -15 20 3 3 21 -6 39 -20 23 -17 36 -21 41 -14 4 8 8
7 12 -2 10 -25 7 105 -3 151 -15 65 -46 135 -75 166 -14 15 -28 39 -32 53 -3
14 -10 32 -16 38 -12 16 15 28 41 18 12 -4 14 -3 7 4 -10 10 -100 31 -131 31
-8 0 -14 -4 -14 -10z"/>
<path d="M2091 3589 c-53 -16 -31 -19 29 -4 30 7 44 13 30 13 -14 0 -40 -4
-59 -9z"/>
<path d="M2190 3565 c-7 -8 -31 -24 -54 -34 -22 -10 -50 -28 -61 -41 -15 -18
-10 -16 24 8 24 18 49 32 56 32 6 0 22 11 35 25 13 14 21 25 18 25 -3 0 -11
-7 -18 -15z"/>
<path d="M2900 3505 c13 -14 26 -25 28 -25 3 0 -5 11 -18 25 -13 14 -26 25
-28 25 -3 0 5 -11 18 -25z"/>
<path d="M2412 3447 c19 -93 29 -175 27 -222 -2 -74 -1 -78 19 -70 9 4 64 9
122 12 109 5 149 13 66 13 -26 0 -57 5 -69 12 -21 11 -21 11 -2 18 13 5 -4 10
-51 15 l-71 7 -6 78 c-7 82 -24 167 -37 175 -4 2 -3 -15 2 -38z"/>
<path d="M2029 3453 c-13 -16 -12 -17 4 -4 9 7 17 15 17 17 0 8 -8 3 -21 -13z"/>
<path d="M1531 3399 c-33 -22 -64 -46 -68 -52 -4 -7 10 1 30 16 21 16 57 39
80 53 23 13 37 24 31 24 -7 0 -39 -18 -73 -41z"/>
<path d="M1949 3383 l-24 -28 28 24 c25 23 32 31 24 31 -2 0 -14 -12 -28 -27z"/>
<path d="M986 3368 c-9 -12 -16 -29 -16 -37 0 -17 22 10 33 42 9 23 1 21 -17
-5z"/>
<path d="M1368 3373 c7 -3 16 -2 19 1 4 3 -2 6 -13 5 -11 0 -14 -3 -6 -6z"/>
<path d="M1786 3330 c-19 -30 -33 -40 -52 -40 -14 0 -66 -13 -116 -30 -49 -16
-96 -30 -105 -30 -24 0 -10 -10 22 -16 14 -2 24 -1 21 4 -10 17 157 63 189 52
14 -5 7 -10 -29 -20 -25 -7 -49 -17 -52 -22 -3 -4 -9 -6 -14 -3 -13 8 -72 -17
-63 -26 5 -5 59 10 123 35 63 24 135 50 160 57 25 7 50 17 55 21 10 9 -10 6
-83 -12 -53 -14 -66 -4 -41 32 12 16 19 31 17 34 -3 2 -17 -14 -32 -36z"/>
<path d="M1885 3340 c-19 -8 -19 -9 2 -9 12 -1 25 4 28 9 7 12 -2 12 -30 0z"/>
<path d="M1983 3333 c9 -2 25 -2 35 0 9 3 1 5 -18 5 -19 0 -27 -2 -17 -5z"/>
<path d="M1805 3310 c-3 -6 1 -7 9 -4 18 7 21 14 7 14 -6 0 -13 -4 -16 -10z"/>
<path d="M942 3278 c-6 -13 -11 -17 -11 -10 -1 7 -15 11 -38 10 -36 -1 -37 -1
-6 -5 31 -4 61 -28 50 -39 -3 -4 -49 3 -102 15 -103 23 -139 26 -131 12 3 -5
-20 -12 -52 -16 -31 -4 -79 -14 -107 -23 -44 -15 -50 -20 -50 -45 1 -18 -4
-27 -16 -27 -9 0 -24 -10 -35 -22 -19 -23 -19 -23 2 -5 26 21 49 21 144 -2 41
-10 77 -14 78 -10 2 5 19 9 37 9 45 0 133 34 192 73 34 23 49 41 56 66 10 40
4 50 -11 19z"/>
<path d="M818 3273 c7 -3 16 -2 19 1 4 3 -2 6 -13 5 -11 0 -14 -3 -6 -6z"/>
<path d="M2865 3265 c-16 -7 -23 -14 -15 -14 13 -1 13 -2 0 -11 -11 -7 -11
-10 -2 -10 7 0 11 -4 7 -9 -3 -5 -1 -12 5 -16 6 -4 8 -11 5 -16 -4 -5 -1 -9 5
-9 7 0 5 -7 -4 -16 -19 -19 -20 -28 -4 -54 15 -23 3 -39 -15 -20 -9 10 -9 11
1 6 14 -8 17 10 2 19 -6 3 -14 -4 -18 -16 -8 -21 -10 -20 -47 24 -21 26 -41
45 -43 42 -2 -2 17 -28 42 -57 26 -29 57 -73 69 -98 12 -25 38 -67 57 -95 51
-73 76 -129 101 -223 12 -45 24 -80 26 -78 4 4 -9 85 -23 141 -3 13 -2 16 3 8
6 -8 14 -9 23 -3 8 6 11 10 5 10 -5 0 -3 4 5 10 12 8 12 11 -3 28 -9 10 -17
22 -17 26 0 10 53 -19 87 -48 17 -14 34 -22 38 -18 5 4 6 3 3 -3 -3 -5 23 -41
59 -80 47 -51 58 -59 39 -30 -15 22 -34 54 -44 70 -9 17 -37 48 -61 70 -43 38
-74 70 -156 160 -40 43 -21 13 35 -56 25 -30 29 -41 16 -36 -10 4 -38 12 -62
18 -34 9 -46 18 -58 44 -21 44 -20 61 5 104 l21 36 -27 -29 c-14 -15 -29 -25
-33 -21 -4 3 2 13 13 21 13 10 20 26 20 48 0 26 -3 32 -12 24 -16 -13 -18 9
-3 32 5 8 5 17 0 20 -4 3 -2 23 6 45 26 76 14 90 -51 60z m35 -123 c0 -13 -12
-22 -22 -16 -10 6 -1 24 13 24 5 0 9 -4 9 -8z m-10 -87 c-24 -25 -24 -25 -44
-6 -25 26 -13 40 13 17 19 -17 20 -17 32 3 7 11 15 18 18 16 2 -3 -6 -16 -19
-30z"/>
<path d="M1270 3228 l-25 -11 23 -5 c13 -2 28 1 35 6 7 5 50 10 96 11 47 1 87
4 90 6 10 10 -195 3 -219 -7z"/>
<path d="M2145 3218 c-16 -5 -50 -10 -75 -13 -49 -4 -280 -103 -280 -120 0 -4
95 23 189 54 78 26 104 26 157 2 46 -21 66 -42 37 -39 -37 3 -117 -5 -98 -9
11 -3 26 -14 33 -24 7 -11 21 -19 30 -19 9 0 -3 -13 -28 -28 -108 -65 -232
-155 -272 -197 -46 -49 -138 -182 -138 -199 0 -6 17 17 38 51 20 34 59 87 85
117 73 85 319 248 348 230 5 -3 21 1 34 10 31 20 80 20 135 1 24 -8 45 -13 48
-10 8 7 -49 27 -95 32 -40 5 -43 8 -58 54 -9 27 -14 52 -11 57 3 4 -7 20 -22
33 -23 22 -32 24 -57 17z m85 -128 c0 -5 -2 -10 -4 -10 -3 0 -8 5 -11 10 -3 6
-1 10 4 10 6 0 11 -4 11 -10z"/>
<path d="M1194 3204 c-18 -14 -18 -15 6 -8 31 8 50 24 29 24 -8 0 -24 -7 -35
-16z"/>
<path d="M432 3198 c-14 -14 -16 -28 -3 -28 5 0 11 9 14 20 6 23 5 24 -11 8z"/>
<path d="M1078 3161 c-48 -21 -103 -49 -122 -60 -48 -30 -68 -32 -148 -16 -63
14 -127 19 -103 9 6 -2 51 -13 100 -23 l90 -19 75 42 c41 23 100 53 130 65 47
20 84 41 70 41 -3 0 -44 -18 -92 -39z"/>
<path d="M89 3153 c-13 -16 -12 -17 4 -4 9 7 17 15 17 17 0 8 -8 3 -21 -13z"/>
<path d="M2931 3154 c0 -11 3 -14 6 -6 3 7 2 16 -1 19 -3 4 -6 -2 -5 -13z"/>
<path d="M2483 3088 c-61 -24 -68 -38 -19 -38 49 0 85 -16 95 -42 5 -13 5 -25
1 -28 -4 -3 -10 -32 -13 -65 l-5 -60 14 45 c9 25 16 66 17 91 l2 47 26 -19
c15 -10 48 -63 78 -124 29 -59 54 -105 56 -103 7 7 -33 149 -66 233 l-33 85
-51 -1 c-27 0 -74 -10 -102 -21z"/>
<path d="M443 3050 c1 -11 7 -20 14 -20 11 0 11 5 3 20 -6 11 -13 20 -15 20
-2 0 -3 -9 -2 -20z"/>
<path d="M530 3040 c19 -11 40 -19 45 -19 6 0 -6 8 -25 19 -19 11 -39 19 -45
19 -5 0 6 -8 25 -19z"/>
<path d="M968 3053 c7 -3 16 -2 19 1 4 3 -2 6 -13 5 -11 0 -14 -3 -6 -6z"/>
<path d="M2935 3010 c3 -5 8 -10 11 -10 2 0 4 5 4 10 0 6 -5 10 -11 10 -5 0
-7 -4 -4 -10z"/>
<path d="M680 2986 c0 -2 7 -7 16 -10 8 -3 12 -2 9 4 -6 10 -25 14 -25 6z"/>
<path d="M826 2942 c-12 -11 88 -31 154 -30 l65 1 -80 7 c-44 4 -92 12 -106
18 -15 6 -30 8 -33 4z"/>
<path d="M445 2930 c27 -12 43 -12 25 0 -8 5 -22 9 -30 9 -10 0 -8 -3 5 -9z"/>
<path d="M1068 2923 c6 -2 18 -2 25 0 6 3 1 5 -13 5 -14 0 -19 -2 -12 -5z"/>
<path d="M475 2884 c38 -30 94 -54 100 -44 3 6 -2 10 -13 10 -11 0 -36 11 -56
25 -40 27 -63 34 -31 9z"/>
<path d="M252 2863 c15 -16 45 -61 68 -102 24 -41 60 -97 81 -124 22 -27 39
-52 39 -57 0 -11 -26 -20 -58 -20 -15 -1 -43 -10 -62 -21 l-35 -20 50 6 c28 4
54 11 59 16 16 14 46 11 46 -6 0 -18 -62 -45 -105 -45 -18 0 -49 -7 -68 -15
-20 -8 -46 -15 -58 -15 -12 0 -63 -23 -115 -51 l-92 -52 1 -42 1 -43 71 36
c92 48 96 49 58 13 -18 -17 -33 -32 -33 -35 0 -5 183 66 250 97 30 14 75 32
100 41 30 11 69 39 117 86 66 64 104 93 73 55 -7 -9 -10 -18 -7 -22 4 -3 16
14 27 39 19 43 41 64 54 51 11 -11 6 -23 -9 -23 -8 0 -15 -4 -15 -9 0 -15 154
67 181 95 24 26 16 30 -26 14 -20 -8 -27 -7 -31 5 -4 8 -17 15 -30 15 -21 0
-22 3 -14 25 l10 25 -31 -16 c-33 -17 -159 -28 -159 -15 0 5 7 14 15 21 25 20
18 40 -12 39 -24 -2 -25 -2 -5 -6 33 -6 27 -18 -25 -54 -81 -56 -163 -37 -216
52 -22 36 -39 54 -52 54 -11 0 -21 8 -23 19 -3 15 -6 16 -13 5 -6 -10 -9 -10
-9 -1 0 6 -5 12 -12 12 -6 0 0 -12 14 -27z"/>
<path d="M1017 2839 c-32 -32 -35 -36 -12 -21 33 22 72 62 61 62 -4 0 -26 -18
-49 -41z"/>
<path d="M545 2810 c-3 -5 -1 -10 4 -10 6 0 11 5 11 10 0 6 -2 10 -4 10 -3 0
-8 -4 -11 -10z"/>
<path d="M2532 2790 c0 -19 2 -27 5 -17 2 9 2 25 0 35 -3 9 -5 1 -5 -18z"/>
<path d="M3042 2580 c0 -28 25 -133 26 -110 1 8 -5 42 -12 75 -8 33 -14 49
-14 35z"/>
<path d="M710 2557 c-12 -12 -20 -16 -16 -9 16 28 -74 -32 -92 -61 -21 -35
-116 -88 -192 -108 -25 -6 -40 -13 -35 -16 6 -2 38 6 70 18 33 11 68 22 78 23
10 1 39 18 65 38 26 19 65 47 87 60 48 30 80 64 67 72 -5 3 -19 -5 -32 -17z"/>
<path d="M1504 2564 c-18 -14 -18 -15 4 -4 12 6 22 13 22 15 0 8 -5 6 -26 -11z"/>
<path d="M1559 2486 c-104 -57 -163 -96 -156 -102 2 -3 28 11 58 31 29 19 57
35 61 35 5 0 26 11 48 25 22 14 42 25 44 25 3 0 -1 -15 -8 -32 -15 -35 -27
-160 -15 -153 3 3 9 32 11 66 2 33 10 64 16 68 9 5 46 91 39 91 -1 0 -45 -24
-98 -54z"/>
<path d="M285 2335 c-16 -7 -23 -14 -15 -14 8 0 26 6 40 14 32 18 14 18 -25 0z"/>
<path d="M2288 2278 c-41 -79 -45 -89 -19 -58 l21 25 1 -45 c3 -99 17 -105 18
-8 0 53 5 108 11 122 17 46 1 28 -32 -36z"/>
<path d="M175 2286 c-100 -55 -124 -70 -130 -84 -2 -7 9 -3 25 8 17 11 43 29
60 40 16 11 31 20 34 20 2 0 24 11 47 25 24 14 40 25 34 25 -5 0 -37 -15 -70
-34z"/>
<path d="M3083 2294 c9 -46 -2 -77 -24 -71 -12 3 -19 0 -19 -8 0 -16 37 -9 61
12 14 12 18 12 22 1 2 -7 7 -10 11 -7 9 8 -20 73 -40 90 -16 13 -17 11 -11
-17z"/>
<path d="M1300 2306 c0 -10 28 -13 41 -5 10 6 7 9 -13 9 -16 0 -28 -2 -28 -4z"/>
<path d="M1400 2292 c8 -5 40 -15 70 -22 30 -7 70 -21 89 -32 21 -12 38 -15
43 -10 16 16 -38 49 -89 56 -120 16 -128 17 -113 8z m165 -34 c14 -6 25 -15
25 -20 0 -7 -31 8 -59 29 -10 7 10 2 34 -9z"/>
<path d="M1575 2290 c-3 -5 -1 -10 4 -10 6 0 11 5 11 10 0 6 -2 10 -4 10 -3 0
-8 -4 -11 -10z"/>
<path d="M1220 2239 c-22 -18 -22 -19 -3 -10 12 6 25 16 28 21 9 15 3 12 -25
-11z"/>
<path d="M1169 2203 c-13 -16 -12 -17 4 -4 9 7 17 15 17 17 0 8 -8 3 -21 -13z"/>
<path d="M1059 2130 c-46 -33 -88 -60 -93 -60 -5 0 -7 -3 -4 -6 9 -8 37 9 115
67 78 59 78 59 71 59 -2 0 -43 -27 -89 -60z"/>
<path d="M1643 2178 c-16 -21 -51 -139 -57 -193 -5 -41 -2 -36 13 25 10 41 27
99 38 128 22 53 23 61 6 40z"/>
<path d="M2227 2168 c-8 -13 -29 -39 -47 -58 -18 -19 -45 -48 -59 -65 l-26
-30 31 28 c28 26 33 27 60 15 42 -18 142 -87 148 -101 2 -7 5 -7 5 -2 0 6 -3
15 -7 20 -9 13 -121 87 -145 97 -17 7 -15 12 16 50 19 24 37 49 41 56 12 21
-1 13 -17 -10z"/>
<path d="M1009 2163 c-13 -16 -12 -17 4 -4 9 7 17 15 17 17 0 8 -8 3 -21 -13z"/>
<path d="M943 2132 c-24 -9 -43 -20 -43 -24 0 -10 62 12 80 28 17 16 18 16
-37 -4z"/>
<path d="M190 2119 c-11 -7 -4 -8 25 -3 50 8 58 14 19 14 -16 0 -36 -5 -44
-11z"/>
<path d="M2090 2090 c-24 -8 -23 -8 8 -9 17 -1 32 4 32 9 0 11 -5 11 -40 0z"/>
<path d="M891 2074 c0 -11 3 -14 6 -6 3 7 2 16 -1 19 -3 4 -6 -2 -5 -13z"/>
<path d="M920 2044 c0 -14 3 -14 15 -4 8 7 15 14 15 16 0 2 -7 4 -15 4 -8 0
-15 -7 -15 -16z"/>
<path d="M1932 1970 c-54 -73 -97 -149 -89 -157 3 -2 16 20 30 49 25 51 85
130 74 96 -3 -9 -8 -34 -11 -55 -3 -21 2 -9 12 27 10 36 24 75 31 88 22 40 4
23 -47 -48z"/>
<path d="M3241 1993 c54 -93 209 -320 229 -338 12 -11 1 9 -26 45 -27 36 -85
125 -129 197 -44 73 -84 132 -88 133 -5 0 1 -17 14 -37z"/>
<path d="M887 2013 c-9 -9 -9 -51 1 -56 4 -3 7 10 7 29 0 19 0 34 -1 34 0 0
-4 -3 -7 -7z"/>
<path d="M2051 1940 c-30 -49 -44 -84 -18 -45 30 45 58 95 54 95 -3 0 -19 -23
-36 -50z"/>
<path d="M1000 1933 c0 -16 5 -34 11 -40 8 -8 -1 -23 -33 -53 -23 -23 -35 -39
-25 -36 18 6 24 -9 7 -19 -5 -3 -10 -12 -10 -20 0 -11 7 -10 33 3 55 29 203
23 310 -12 48 -16 90 -26 94 -23 12 13 -10 61 -45 95 -21 20 -41 38 -45 39 -4
2 -19 10 -33 20 -27 17 -107 22 -159 9 -19 -5 -33 1 -65 30 l-40 36 0 -29z
m249 -87 c8 -10 9 -16 1 -21 -16 -10 -50 4 -50 21 0 18 34 18 49 0z"/>
<path d="M2398 1912 l43 -38 2 -109 c1 -77 6 -110 15 -113 6 -2 10 -8 6 -13
-3 -5 1 -18 9 -29 25 -35 28 1 11 113 -9 56 -16 125 -15 152 1 46 0 48 -14 31
-14 -19 -16 -19 -57 13 l-43 32 43 -39z m59 -129 c-3 -10 -5 -2 -5 17 0 19 2
27 5 18 2 -10 2 -26 0 -35z"/>
<path d="M3097 1863 c-9 -86 -8 -195 2 -253 6 -41 8 -43 15 -20 13 39 27 54
37 38 6 -8 9 0 9 22 1 29 3 31 10 14 4 -11 4 -40 0 -65 -5 -28 -4 -49 2 -57 6
-7 11 -49 10 -92 -1 -57 2 -80 11 -80 7 0 17 -10 22 -22 20 -45 34 -32 29 26
-4 36 -2 56 5 56 6 0 8 8 4 18 -3 9 10 -1 30 -23 20 -22 36 -46 37 -52 0 -7 9
-13 20 -13 11 0 20 -5 20 -10 0 -6 6 -5 14 2 7 7 12 18 9 24 -10 27 20 23 53
-5 42 -37 46 -38 34 -6 -5 14 -6 25 -1 25 4 0 6 11 3 25 -5 27 -18 33 -25 13
-2 -8 -20 3 -45 30 -23 23 -49 42 -58 42 -10 0 -14 6 -11 14 4 10 1 13 -9 9
-8 -3 -14 1 -14 11 0 8 -9 20 -21 26 -23 13 -81 99 -74 110 8 12 -16 70 -26
64 -5 -3 -9 16 -9 43 -1 42 -2 46 -14 31 -7 -10 -16 -18 -20 -18 -10 0 -27 50
-32 95 -3 22 -7 41 -8 43 -2 1 -6 -28 -9 -65z m26 -53 c3 -11 1 -20 -4 -20 -5
0 -9 9 -9 20 0 11 2 20 4 20 2 0 6 -9 9 -20z m117 -237 c5 -18 4 -33 -1 -33
-5 0 -9 -5 -9 -11 0 -6 7 -9 15 -5 17 6 22 -29 5 -39 -6 -3 -7 1 -4 9 3 9 1
16 -5 16 -6 0 -11 -8 -11 -17 0 -27 -10 -9 -14 25 -2 18 1 32 7 32 5 0 5 5 -2
13 -6 8 -8 17 -4 20 3 4 1 12 -4 19 -6 7 -13 27 -17 43 l-7 30 22 -35 c12 -19
25 -50 29 -67z"/>
<path d="M1305 1904 c67 -61 77 -68 67 -49 -6 11 -25 29 -44 39 -18 10 -28 15
-23 10z"/>
<path d="M1572 1890 c0 -14 2 -19 5 -12 2 6 2 18 0 25 -3 6 -5 1 -5 -13z"/>
<path d="M1610 1865 c0 -14 2 -25 4 -25 2 0 6 11 8 25 3 14 1 25 -3 25 -5 0
-9 -11 -9 -25z"/>
<path d="M1770 1832 c-7 -20 -10 -51 -7 -67 4 -27 4 -26 6 8 0 21 8 51 16 67
9 17 11 30 6 30 -6 0 -15 -17 -21 -38z"/>
<path d="M1561 1840 c0 -14 4 -32 9 -40 9 -13 10 -13 9 0 -1 8 -5 26 -9 40
l-8 25 -1 -25z"/>
<path d="M2490 1847 c0 -2 15 -16 33 -33 l32 -29 -29 33 c-28 30 -36 37 -36
29z"/>
<path d="M900 1831 c0 -5 5 -13 10 -16 6 -3 10 -2 10 4 0 5 -4 13 -10 16 -5 3
-10 2 -10 -4z"/>
<path d="M545 1803 c-16 -14 -23 -23 -15 -20 8 4 23 10 33 13 9 4 17 13 17 20
0 18 0 18 -35 -13z"/>
<path d="M836 1800 c4 -19 14 -46 22 -60 20 -33 84 -100 95 -100 4 0 -7 15
-26 33 -44 42 -77 90 -77 114 0 10 -5 25 -11 33 -7 11 -8 6 -3 -20z"/>
<path d="M1931 1805 c0 -11 4 -29 9 -40 l9 -20 0 20 c0 11 -4 29 -9 40 l-9 20
0 -20z"/>
<path d="M1816 1760 c-22 -56 -19 -65 5 -11 11 24 18 46 15 48 -2 2 -11 -14
-20 -37z"/>
<path d="M2351 1794 c-1 -6 4 -26 10 -45 6 -19 13 -40 15 -48 3 -8 7 -12 9 -9
3 2 -4 29 -14 59 -11 30 -20 49 -20 43z"/>
<path d="M2585 1760 c10 -11 20 -20 23 -20 3 0 -3 9 -13 20 -10 11 -20 20 -23
20 -3 0 3 -9 13 -20z"/>
<path d="M1646 1685 c4 -8 8 -15 10 -15 2 0 4 7 4 15 0 8 -4 15 -10 15 -5 0
-7 -7 -4 -15z"/>
<path d="M234 1627 c16 -20 30 -37 33 -37 7 0 -36 58 -49 66 -7 4 1 -9 16 -29z"/>
<path d="M1781 1648 c0 -7 4 -22 9 -33 8 -18 9 -17 9 7 1 15 -3 30 -9 33 -5 3
-10 0 -9 -7z"/>
<path d="M2400 1643 c0 -7 16 -49 36 -94 34 -76 35 -84 24 -126 -6 -25 -23
-61 -37 -79 -16 -22 -20 -32 -10 -29 8 4 18 2 21 -3 3 -5 -4 -12 -15 -15 -12
-3 -18 -10 -15 -16 6 -10 -80 -100 -95 -101 -4 0 -22 -14 -40 -31 -41 -38 -22
-28 46 22 80 59 251 248 298 328 29 49 12 36 -22 -18 -17 -26 -39 -55 -49 -64
-20 -18 -20 -18 -101 153 -23 47 -41 80 -41 73z"/>
<path d="M2670 1639 c0 -5 5 -7 10 -4 6 3 10 8 10 11 0 2 -4 4 -10 4 -5 0 -10
-5 -10 -11z"/>
<path d="M640 1633 c0 -6 8 -17 18 -24 16 -13 16 -13 2 6 -8 11 -16 22 -17 24
-2 2 -3 0 -3 -6z"/>
<path d="M755 1620 c10 -11 20 -20 23 -20 3 0 -3 9 -13 20 -10 11 -20 20 -23
20 -3 0 3 -9 13 -20z"/>
<path d="M590 1600 c-1 -19 -1 -46 0 -59 1 -17 -2 -22 -12 -19 -9 4 -14 -1
-15 -13 -1 -11 -9 -26 -17 -34 -8 -8 -18 -25 -21 -36 -5 -14 -13 -19 -26 -16
-10 3 -22 0 -26 -5 -4 -7 -1 -8 7 -3 8 5 11 4 6 -3 -7 -12 -30 -7 -57 12 -8 6
2 -6 24 -26 43 -42 64 -47 74 -20 13 34 39 61 53 52 10 -6 9 -14 -7 -36 -32
-47 -36 -61 -9 -29 15 17 29 41 33 55 3 14 9 27 13 30 4 3 1 46 -5 95 -8 55
-13 76 -15 55z"/>
<path d="M2656 1604 c-4 -9 -4 -19 -1 -22 2 -3 7 3 11 12 4 9 4 19 1 22 -2 3
-7 -3 -11 -12z"/>
<path d="M3515 1600 c10 -11 20 -20 23 -20 3 0 -3 9 -13 20 -10 11 -20 20 -23
20 -3 0 3 -9 13 -20z"/>
<path d="M1881 1596 c-48 -17 -49 -32 -3 -38 21 -3 72 -20 113 -37 81 -35 147
-96 215 -199 25 -37 41 -52 51 -48 9 4 21 2 28 -4 20 -17 7 80 -16 112 -26 36
-25 40 16 62 19 11 35 22 35 26 0 7 -75 20 -114 20 -35 -1 4 -19 47 -22 20 -1
33 -6 30 -11 -3 -5 -25 -7 -48 -4 -37 4 -42 2 -38 -12 5 -11 -1 -9 -19 7 -13
12 -31 22 -39 22 -8 0 -20 5 -27 12 -15 15 -16 48 -1 48 21 0 49 -21 49 -37 0
-14 2 -15 13 -4 10 10 6 17 -17 36 -82 66 -205 98 -275 71z"/>
<path d="M730 1593 c0 -6 8 -17 18 -24 16 -13 16 -13 2 6 -8 11 -16 22 -17 24
-2 2 -3 0 -3 -6z"/>
<path d="M676 1577 c3 -10 9 -15 12 -12 3 3 0 11 -7 18 -10 9 -11 8 -5 -6z"/>
<path d="M1715 1580 c3 -5 8 -10 11 -10 2 0 4 5 4 10 0 6 -5 10 -11 10 -5 0
-7 -4 -4 -10z"/>
<path d="M700 1557 c0 -4 7 -19 16 -33 14 -20 16 -43 12 -122 l-5 -97 13 60
c20 92 17 135 -11 170 -14 17 -25 26 -25 22z"/>
<path d="M3105 1504 c4 -37 2 -42 -17 -47 -17 -5 -19 -9 -9 -21 9 -10 9 -16 1
-21 -14 -9 -15 -8 -28 40 l-10 40 -1 -37 c-1 -20 -4 -44 -8 -54 -4 -12 -3 -15
5 -10 7 4 12 3 12 -1 0 -5 -9 -14 -20 -21 -11 -7 -20 -18 -20 -25 0 -8 3 -8 8
-1 4 5 17 10 30 10 19 0 21 -2 9 -11 -9 -5 -24 -16 -34 -23 -10 -7 -12 -10 -5
-7 21 10 13 -11 -15 -39 -16 -16 -20 -24 -10 -20 10 3 17 1 17 -5 0 -10 -14
-15 -33 -12 -5 1 -6 -3 -2 -8 3 -6 12 -8 20 -4 8 3 15 0 15 -6 0 -10 -14 -15
-32 -12 -5 0 -8 -6 -8 -15 0 -14 3 -14 15 -4 9 7 19 10 22 6 4 -4 1 -11 -6
-15 -11 -7 -11 -10 0 -15 11 -5 12 -7 1 -12 -14 -6 -29 -39 -42 -89 -4 -16
-11 -39 -16 -49 -5 -14 -4 -17 4 -12 19 11 14 -5 -5 -20 -11 -8 -13 -13 -6
-14 10 0 10 -6 1 -25 -6 -14 -14 -25 -17 -25 -4 0 -8 -10 -8 -22 -1 -13 -8
-27 -15 -33 -7 -5 -15 -26 -16 -45 -2 -19 -8 -40 -13 -46 -5 -6 -6 -13 -3 -17
3 -3 -1 -18 -10 -34 -8 -15 -15 -23 -16 -18 0 6 -6 -1 -13 -14 -6 -14 -18 -26
-25 -29 -11 -3 -12 0 -3 16 6 12 10 27 9 34 -2 8 4 12 15 10 9 -2 17 1 17 5 0
5 -8 9 -18 10 -13 1 -33 -26 -71 -95 -34 -60 -73 -115 -105 -145 -35 -34 -42
-43 -21 -31 17 10 46 26 65 36 43 22 92 58 105 78 25 36 66 107 71 123 4 9 13
17 20 17 12 0 12 -4 -1 -23 -8 -13 -12 -27 -8 -32 5 -4 3 -5 -4 -1 -8 4 -24
-17 -48 -64 -19 -38 -39 -70 -43 -70 -4 0 -12 -10 -17 -22 -6 -13 -16 -22 -23
-21 -7 2 -12 -3 -12 -10 0 -27 -110 -104 -131 -91 -5 3 -46 -7 -90 -21 -56
-19 -77 -30 -68 -36 11 -7 10 -9 -4 -9 -45 0 -126 -58 -248 -177 -71 -69 -129
-130 -129 -134 0 -5 120 -9 266 -9 l267 0 61 53 c34 30 80 66 103 80 23 14 45
32 49 39 6 10 3 9 -9 -1 -9 -7 -17 -9 -17 -3 0 16 86 69 142 88 28 9 46 19 40
23 -11 7 -22 53 -27 118 -2 26 -9 64 -15 83 -13 46 -14 151 0 130 8 -12 10
-10 10 11 0 45 103 119 166 119 28 0 248 -84 266 -102 10 -10 18 -14 18 -8 0
5 14 25 31 45 37 42 56 44 170 14 58 -15 88 -18 103 -11 17 7 8 11 -54 22 -52
9 -79 18 -88 31 -7 11 -18 19 -24 19 -7 0 -6 -6 2 -15 11 -13 6 -15 -37 -15
-37 0 -55 -5 -68 -20 -29 -32 -49 -24 -73 28 -12 26 -38 81 -57 122 l-35 75
-1 -45 c-2 -34 -4 -26 -9 30 -5 54 -16 94 -41 145 -44 92 -43 89 -32 82 5 -3
15 -2 23 4 12 7 12 9 1 9 -8 0 -11 6 -7 16 3 8 2 12 -3 9 -10 -5 -25 12 -26
30 -1 6 -6 9 -11 8 -15 -3 -17 84 -2 93 7 5 9 2 5 -9 -4 -11 -2 -14 9 -10 11
4 15 -2 14 -28 0 -52 3 -69 12 -63 5 3 6 9 3 14 -7 11 -16 147 -17 253 0 73
-8 95 -15 44 -10 -72 -14 -74 -34 -17 -19 53 -19 54 -14 14z m20 -133 c5 -25
-3 -51 -15 -51 -5 0 -5 12 -1 28 4 15 6 34 3 42 -3 8 -2 12 2 9 4 -4 9 -16 11
-28z m-68 -63 c-3 -8 -6 -5 -6 6 -1 11 2 17 5 13 3 -3 4 -12 1 -19z m28 12 c3
-5 1 -10 -4 -10 -6 0 -11 5 -11 10 0 6 2 10 4 10 3 0 8 -4 11 -10z m35 -25 c0
-8 -4 -15 -10 -15 -5 0 -7 7 -4 15 4 8 8 15 10 15 2 0 4 -7 4 -15z m-94 -20
c-4 -10 1 -15 17 -16 21 0 21 -1 2 -8 -12 -5 -23 -4 -27 2 -6 10 0 37 9 37 3
0 3 -7 -1 -15z m34 5 c0 -5 -2 -10 -4 -10 -3 0 -8 5 -11 10 -3 6 -1 10 4 10 6
0 11 -4 11 -10z m106 -128 c-4 -3 -13 3 -21 14 -22 28 -18 37 6 13 11 -11 18
-23 15 -27z m-156 -21 c0 -6 -4 -12 -8 -15 -5 -3 -9 1 -9 9 0 8 4 15 9 15 4 0
8 -4 8 -9z m-15 -41 c3 -5 1 -10 -4 -10 -6 0 -11 5 -11 10 0 6 2 10 4 10 3 0
8 -4 11 -10z m-83 -315 c-2 -19 -8 -35 -13 -35 -5 0 -6 12 -3 28 13 52 22 56
16 7z m-412 -435 c-8 -5 -22 -9 -30 -9 -10 0 -8 3 5 9 27 12 43 12 25 0z
m-331 -237 c-28 -38 -84 -93 -93 -93 -6 0 14 25 44 55 55 55 74 70 49 38z"/>
<path d="M160 1522 c0 -4 11 -38 25 -77 13 -38 25 -80 25 -92 0 -41 -18 -24
-36 33 -12 38 -24 58 -37 62 -11 3 -14 7 -8 11 8 5 6 13 -5 27 -8 10 -13 13
-9 7 4 -8 0 -13 -9 -13 -10 0 -13 -6 -9 -17 6 -16 5 -17 -11 -3 -16 13 -20 12
-31 -3 -11 -15 -13 -16 -19 -2 -3 8 -12 15 -20 15 -13 0 -15 -48 -15 -366 l-1
-366 99 94 c70 66 126 108 193 146 93 52 94 52 90 87 -6 50 2 72 53 149 46 67
46 68 25 83 -11 8 -17 19 -14 25 5 7 2 9 -8 6 -21 -8 -86 46 -90 75 -2 12 -7
22 -13 22 -5 0 -16 4 -22 8 -7 5 -17 6 -22 2 -5 -3 -13 0 -16 6 -5 6 -13 3
-22 -11 -19 -27 -38 -13 -47 33 -5 28 -46 81 -46 59z m32 -594 c-9 -9 -165
-58 -170 -54 -2 3 6 7 17 11 12 3 21 13 21 22 0 15 32 64 60 93 13 14 18 11
47 -25 17 -22 28 -43 25 -47z"/>
<path d="M2823 1458 c-52 -83 -59 -99 -31 -66 25 29 82 128 74 128 -2 0 -22
-28 -43 -62z"/>
<path d="M777 1489 c12 -12 25 -20 28 -17 3 3 -7 13 -22 23 l-28 17 22 -23z"/>
<path d="M861 1460 c8 -14 19 -28 26 -33 7 -4 9 -15 6 -24 -4 -10 -2 -14 4
-10 6 4 32 -5 57 -19 26 -15 50 -24 53 -21 3 3 -11 13 -31 21 -19 8 -57 36
-82 63 -27 28 -41 37 -33 23z"/>
<path d="M3480 1429 c6 -18 10 -35 10 -37 0 -2 6 -2 13 1 6 2 19 0 29 -4 11
-6 18 -4 22 7 4 9 2 12 -5 8 -6 -3 -26 9 -45 27 l-34 33 10 -35z"/>
<path d="M3251 1404 c0 -11 3 -14 6 -6 3 7 2 16 -1 19 -3 4 -6 -2 -5 -13z"/>
<path d="M3597 1396 c10 -12 18 -22 18 -23 1 -1 6 6 12 16 10 17 8 19 -18 23
-28 4 -29 4 -12 -16z"/>
<path d="M760 1380 c0 -19 3 -21 12 -12 9 9 9 15 0 24 -9 9 -12 7 -12 -12z"/>
<path d="M1430 1384 c0 -8 5 -12 10 -9 6 3 10 10 10 16 0 5 -4 9 -10 9 -5 0
-10 -7 -10 -16z"/>
<path d="M853 1366 c10 -14 9 -28 -2 -21 -14 8 -20 -6 -51 -106 -34 -110 -22
-109 15 1 15 44 29 80 31 80 7 0 8 5 -61 -225 -59 -199 -123 -387 -134 -395
-4 -3 -17 -46 -29 -95 -35 -144 -27 -394 13 -445 7 -8 16 -37 20 -64 14 -99
39 -124 63 -64 7 18 20 48 29 66 l17 33 12 -28 c17 -38 17 -20 0 52 -15 63
-13 84 4 44 10 -22 10 -22 5 6 -3 17 -8 38 -11 48 -3 9 -1 17 5 17 6 0 14 -12
17 -28 4 -15 13 -36 20 -47 8 -11 14 -26 14 -35 0 -12 -2 -12 -9 -1 -5 8 -11
-10 -16 -53 -3 -36 -11 -66 -16 -66 -5 0 -9 -9 -9 -20 0 -15 7 -20 24 -20 22
0 26 7 36 57 7 31 10 75 7 97 l-6 40 34 -39 c35 -42 58 -44 31 -3 -8 12 -18
41 -21 63 -6 39 -5 41 33 61 47 25 67 18 67 -23 0 -30 37 -55 85 -57 25 -1 26
-2 25 -78 0 -43 -2 -78 -5 -78 -3 0 -16 -9 -30 -20 l-25 -20 61 0 62 0 42 65
c53 82 138 160 267 250 56 39 102 75 103 81 0 6 6 16 13 23 10 8 12 26 6 73
-11 90 -24 121 -49 113 -19 -6 -29 8 -12 18 4 2 0 2 -8 -1 -8 -2 -20 -5 -27
-5 -7 0 -10 -4 -8 -8 6 -8 -61 -69 -75 -69 -6 0 -10 9 -10 19 0 11 -4 23 -10
26 -5 3 -10 19 -10 34 0 15 -7 36 -15 47 -27 35 -19 44 40 44 30 0 55 -4 55
-8 0 -5 14 -7 30 -6 18 1 30 -3 30 -10 0 -8 11 -11 30 -8 25 4 30 1 30 -17 0
-24 0 -24 -34 -11 -34 13 -33 -1 0 -17 21 -10 44 -8 123 7 96 20 216 56 238
73 6 5 33 17 60 27 l48 19 -48 1 c-27 0 -46 -4 -43 -9 3 -5 -1 -12 -10 -15
-10 -4 -13 -2 -8 6 5 7 -1 9 -20 4 -19 -5 -26 -3 -26 9 0 8 5 15 11 15 5 0 7
-5 3 -12 -4 -7 -3 -8 4 -4 17 10 15 15 -10 26 -13 5 -34 17 -48 27 -24 16 -25
16 -7 -2 17 -19 16 -20 -20 -32 l-38 -12 38 6 c23 3 37 1 37 -6 0 -15 -28 -19
-185 -25 -77 -2 -141 -8 -142 -13 -2 -4 -67 -6 -145 -4 -124 3 -146 6 -168 23
-31 24 -49 56 -50 86 0 12 -6 22 -13 22 -8 0 -26 24 -40 53 -33 64 -102 169
-108 163 -2 -3 -12 9 -22 26 -15 26 -15 30 -1 24 11 -4 7 9 -14 47 -17 28 -33
69 -37 90 -4 20 -11 37 -15 37 -5 0 -6 -10 -4 -22 4 -21 4 -21 -4 -3 -5 11 -6
30 -1 42 6 17 3 28 -14 46 -12 12 -19 18 -14 13z m929 -663 c-6 -3 -9 -9 -6
-15 4 -5 -4 -4 -17 2 -22 12 -22 13 -4 26 14 11 22 11 29 3 8 -8 7 -13 -2 -16z
m95 16 c-35 -21 -74 -28 -74 -14 0 8 12 13 29 13 15 -1 31 2 35 5 3 4 11 7 17
7 6 0 3 -5 -7 -11z m-297 -14 c0 -9 -9 -15 -22 -14 -13 0 -17 3 -9 6 11 5 11
7 0 14 -10 6 -8 9 9 9 13 0 22 -6 22 -15z m148 0 c6 -5 6 -5 -81 -8 -40 -1
-57 2 -57 11 0 9 17 11 66 8 37 -3 69 -8 72 -11z m-508 -3 c0 -4 -5 -13 -12
-20 -9 -9 -9 -15 -1 -23 9 -9 22 -8 53 5 54 22 76 20 94 -6 20 -28 21 -44 2
-29 -10 9 -17 7 -27 -5 -7 -9 -37 -32 -67 -51 -62 -39 -206 -155 -240 -193
-42 -48 31 100 109 219 66 100 89 127 89 103z m540 -27 c0 -1 -28 -8 -62 -14
-35 -6 -73 -14 -85 -17 -17 -5 -23 -2 -23 9 0 9 8 17 17 19 25 4 153 8 153 3z
m-723 -52 c-23 -44 -106 -153 -117 -153 -5 0 14 30 42 67 27 37 57 82 66 101
9 18 18 29 20 23 2 -5 -3 -22 -11 -38z m-290 -5 c-3 -8 -6 -5 -6 6 -1 11 2 17
5 13 3 -3 4 -12 1 -19z m-60 -10 c-3 -8 -6 -5 -6 6 -1 11 2 17 5 13 3 -3 4
-12 1 -19z m-50 -45 c-3 -10 -5 -4 -5 12 0 17 2 24 5 18 2 -7 2 -21 0 -30z
m-10 -70 c-3 -10 -5 -2 -5 17 0 19 2 27 5 18 2 -10 2 -26 0 -35z m141 -43 c0
-22 -1 -22 -8 5 -4 17 -8 39 -8 50 0 16 2 15 8 -5 4 -14 8 -36 8 -50z m-93 0
c3 -5 1 -10 -4 -10 -6 0 -11 5 -11 10 0 6 2 10 4 10 3 0 8 -4 11 -10z m39
-135 c8 -27 13 -51 12 -53 -8 -8 -46 87 -45 114 0 25 2 26 9 9 4 -11 15 -42
24 -70z m560 21 c-3 -14 -10 -26 -15 -26 -11 0 -11 3 1 36 13 33 23 26 14 -10z
m-277 -28 c-3 -8 -6 -5 -6 6 -1 11 2 17 5 13 3 -3 4 -12 1 -19z m111 -69 c-4
-28 -64 -37 -93 -15 -20 15 -19 15 1 10 12 -3 35 1 50 10 39 21 46 20 42 -5z"/>
<path d="M746 1324 c-4 -9 -4 -19 -1 -22 2 -3 7 3 11 12 4 9 4 19 1 22 -2 3
-7 -3 -11 -12z"/>
<path d="M920 1331 c0 -6 4 -13 10 -16 6 -3 7 1 4 9 -7 18 -14 21 -14 7z"/>
<path d="M740 1270 c-6 -11 -8 -20 -6 -20 3 0 10 9 16 20 6 11 8 20 6 20 -3 0
-10 -9 -16 -20z"/>
<path d="M697 1264 c4 -10 -10 -32 -40 -62 -24 -26 -52 -62 -61 -79 -15 -30
-26 -38 -49 -34 -6 1 7 -34 18 -47 1 -2 12 15 23 37 12 22 42 67 68 100 41 52
48 58 61 45 18 -18 24 -18 17 1 -4 8 -10 15 -16 15 -5 0 -6 9 -3 20 4 14 2 20
-9 20 -10 0 -13 -6 -9 -16z"/>
<path d="M2901 1222 c-7 -13 -6 -19 2 -19 7 0 13 9 13 19 0 10 -1 18 -3 18 -1
0 -7 -8 -12 -18z"/>
<path d="M684 1188 l-19 -23 23 19 c21 18 27 26 19 26 -2 0 -12 -10 -23 -22z"/>
<path d="M1247 1176 c-8 -20 24 -77 53 -94 24 -14 24 -13 5 2 -20 17 -20 17 3
35 31 23 76 16 124 -18 21 -14 43 -39 49 -54 12 -30 26 -31 43 -4 19 30 -45
77 -175 127 -63 23 -95 25 -102 6z"/>
<path d="M2870 1161 c-6 -12 -7 -21 -1 -21 10 0 24 30 17 37 -2 3 -9 -5 -16
-16z"/>
<path d="M2890 1118 c-17 -35 -30 -70 -29 -78 0 -8 6 1 14 21 7 19 22 54 34
77 12 23 19 42 16 42 -3 0 -19 -28 -35 -62z"/>
<path d="M2955 1150 c-3 -5 -1 -10 4 -10 6 0 11 5 11 10 0 6 -2 10 -4 10 -3 0
-8 -4 -11 -10z"/>
<path d="M2744 1112 c-39 -48 -54 -76 -20 -37 55 61 66 75 58 75 -4 0 -21 -17
-38 -38z"/>
<path d="M3192 1100 c7 -10 14 -18 15 -16 6 6 -9 36 -18 36 -5 0 -4 -9 3 -20z"/>
<path d="M2150 1080 c-8 -5 -10 -10 -5 -10 6 0 17 5 25 10 8 5 11 10 5 10 -5
0 -17 -5 -25 -10z"/>
<path d="M1395 1034 c28 -13 57 -24 65 -24 8 0 -12 12 -45 25 -75 31 -85 31
-20 -1z"/>
<path d="M1900 1045 c0 -17 70 -45 110 -44 l45 2 -52 6 c-28 4 -60 14 -70 24
-19 17 -33 22 -33 12z"/>
<path d="M2228 1043 c7 -3 16 -2 19 1 4 3 -2 6 -13 5 -11 0 -14 -3 -6 -6z"/>
<path d="M2124 1026 c-42 -13 -98 -46 -78 -46 5 0 14 4 20 9 5 5 38 18 74 30
36 11 56 20 45 20 -11 0 -39 -6 -61 -13z"/>
<path d="M2645 998 l-40 -43 43 40 c23 21 42 40 42 42 0 8 -9 0 -45 -39z"/>
<path d="M449 1003 c-13 -16 -12 -17 4 -4 9 7 17 15 17 17 0 8 -8 3 -21 -13z"/>
<path d="M1980 960 c0 -5 7 -10 15 -10 8 0 15 5 15 10 0 6 -7 10 -15 10 -8 0
-15 -4 -15 -10z"/>
<path d="M2762 958 c-6 -7 -44 -83 -85 -169 -78 -164 -124 -238 -202 -329
l-47 -55 58 60 c78 80 131 165 219 350 40 85 72 155 71 155 -2 0 -8 -6 -14
-12z"/>
<path d="M229 922 c-86 -58 -136 -101 -184 -160 l-45 -54 0 -173 0 -173 32
-21 c18 -11 28 -21 23 -21 -6 0 -21 7 -33 16 l-22 15 0 -175 0 -176 94 0 93 0
-23 47 c-30 62 -30 105 2 200 l26 77 -39 37 c-21 20 -40 43 -42 50 -21 83 -40
205 -36 231 18 105 36 143 99 208 34 36 75 75 92 87 47 36 24 26 -37 -15z
m-196 -819 c-7 -2 -10 -10 -7 -18 3 -8 2 -21 -4 -30 -8 -15 -9 13 -3 70 1 5 7
3 14 -4 9 -10 9 -15 0 -18z"/>
<path d="M2026 952 c-4 -4 19 -11 51 -17 l58 -10 -38 -24 c-21 -13 -36 -26
-33 -29 3 -2 28 10 55 29 l49 34 -46 7 c-26 4 -56 9 -68 12 -12 3 -24 2 -28
-2z"/>
<path d="M267 871 c-22 -20 -56 -61 -76 -91 -36 -54 -36 -56 -36 -160 0 -90 3
-110 21 -139 l21 -33 5 113 c3 89 9 125 26 163 24 53 86 151 102 161 16 10 12
22 -7 22 -9 0 -35 -16 -56 -36z"/>
<path d="M2030 900 c-8 -5 -10 -10 -5 -10 6 0 17 5 25 10 8 5 11 10 5 10 -5 0
-17 -5 -25 -10z"/>
<path d="M368 877 c-26 -21 -60 -79 -73 -124 -12 -41 4 -24 35 36 16 33 34 62
40 66 9 6 34 45 28 45 -2 -1 -15 -11 -30 -23z"/>
<path d="M2530 819 l-65 -61 68 58 c61 52 73 64 64 64 -1 0 -32 -27 -67 -61z"/>
<path d="M1865 849 c-13 -6 -4 -7 30 -3 28 4 52 8 54 10 9 8 -65 2 -84 -7z"/>
<path d="M2801 774 c0 -11 3 -14 6 -6 3 7 2 16 -1 19 -3 4 -6 -2 -5 -13z"/>
<path d="M1823 648 c-33 -34 -72 -110 -73 -140 0 -9 -8 -22 -17 -28 -15 -9
-14 -10 7 -4 36 10 117 53 131 70 6 7 15 12 19 9 4 -3 14 3 21 13 13 15 12 16
-3 3 -10 -7 -18 -9 -18 -3 0 19 80 82 104 82 14 0 27 4 30 9 7 10 -76 3 -123
-11 -18 -6 -51 -28 -72 -50 -49 -51 -52 -27 -4 36 41 54 41 58 -2 14z"/>
<path d="M2460 639 c-22 -18 -22 -19 -3 -10 12 6 25 16 28 21 9 15 3 12 -25
-11z"/>
<path d="M2405 610 c-3 -6 1 -7 9 -4 18 7 21 14 7 14 -6 0 -13 -4 -16 -10z"/>
<path d="M1949 563 c-13 -16 -12 -17 4 -4 9 7 17 15 17 17 0 8 -8 3 -21 -13z"/>
<path d="M1894 498 l-19 -23 23 19 c21 18 27 26 19 26 -2 0 -12 -10 -23 -22z"/>
<path d="M2409 473 l-34 -38 38 34 c20 19 37 36 37 38 0 8 -8 0 -41 -34z"/>
<path d="M1824 458 l-19 -23 23 19 c21 18 27 26 19 26 -2 0 -12 -10 -23 -22z"/>
<path d="M1913 459 c-46 -29 -41 -36 5 -8 46 28 47 29 36 29 -5 0 -24 -10 -41
-21z"/>
<path d="M3920 455 c0 -8 2 -15 4 -15 2 0 6 7 10 15 3 8 1 15 -4 15 -6 0 -10
-7 -10 -15z"/>
<path d="M3916 414 c-3 -9 -6 -25 -6 -36 0 -17 -5 -19 -27 -14 -25 5 -24 4 7
-13 32 -18 68 -56 97 -106 11 -19 12 -18 13 11 0 25 -8 37 -40 59 -37 26 -40
31 -34 59 3 17 11 37 16 44 8 8 6 12 -5 12 -8 0 -18 -7 -21 -16z"/>
<path d="M1679 323 c-13 -16 -12 -17 4 -4 16 13 21 21 13 21 -2 0 -10 -8 -17
-17z"/>
<path d="M1619 277 c-38 -34 -85 -87 -78 -87 2 0 30 27 63 60 64 66 71 78 15
27z"/>
<path d="M3270 278 c0 -18 18 -35 80 -77 44 -30 87 -63 97 -73 9 -10 22 -18
29 -18 7 0 14 -5 16 -12 3 -9 6 -9 12 0 5 8 -3 16 -21 24 -28 11 -28 12 -4 16
30 5 36 -1 65 -73 17 -43 30 -61 45 -63 20 -3 20 -2 6 37 -18 53 -4 53 20 1
17 -38 20 -40 63 -40 41 0 44 2 37 23 -12 40 -27 102 -30 122 -4 34 -5 35 -14
35 -5 0 -7 -10 -3 -22 4 -19 3 -21 -9 -11 -15 12 -66 7 -75 -8 -9 -15 -26 -10
-20 7 3 9 2 12 -5 8 -6 -3 -9 -14 -6 -24 6 -25 -17 -15 -37 15 -11 17 -21 21
-41 18 -30 -6 -73 20 -152 92 -49 43 -53 45 -53 23z m417 -210 c-3 -7 -5 -2
-5 12 0 14 2 19 5 13 2 -7 2 -19 0 -25z m-97 -53 c0 -5 -5 -3 -10 5 -5 8 -10
20 -10 25 0 6 5 3 10 -5 5 -8 10 -19 10 -25z m107 13 c-3 -8 -6 -5 -6 6 -1 11
2 17 5 13 3 -3 4 -12 1 -19z"/>
<path d="M185 243 c-28 -67 -29 -108 -5 -168 l22 -55 42 72 41 73 -19 53 c-20
54 -31 64 -39 35 -4 -14 -5 -12 -6 5 -2 33 -19 27 -36 -15z"/>
<path d="M1767 167 c-19 -107 -22 -167 -7 -167 7 0 8 13 5 33 -4 19 1 75 10
126 10 51 15 94 13 97 -3 2 -12 -38 -21 -89z"/>
<path d="M3271 224 c0 -11 3 -14 6 -6 3 7 2 16 -1 19 -3 4 -6 -2 -5 -13z"/>
<path d="M3896 198 c-39 -36 -37 -61 12 -112 27 -28 53 -46 66 -46 22 0 23 4
25 71 1 55 -2 76 -15 90 -23 25 -57 24 -88 -3z m39 -95 l18 -28 -21 19 c-12
11 -22 23 -22 28 0 14 7 9 25 -19z m36 5 c27 -33 23 -45 -6 -18 -24 22 -32 40
-19 40 3 0 14 -10 25 -22z"/>
<path d="M3248 166 c-22 -45 -73 -68 -130 -60 -24 4 -50 12 -58 18 -13 9 -13
9 -3 -5 7 -9 31 -21 53 -28 37 -11 45 -10 82 11 38 21 87 82 76 93 -2 3 -12
-10 -20 -29z"/>
<path d="M920 157 c0 -2 15 -14 33 -27 20 -15 27 -17 18 -6 -13 16 -51 41 -51
33z"/>
<path d="M1656 134 c-4 -14 -5 -28 -3 -31 3 -2 8 8 11 23 4 14 5 28 3 31 -3 2
-8 -8 -11 -23z"/>
<path d="M3757 104 c8 -31 12 -68 9 -81 -4 -13 -2 -23 4 -23 11 0 12 91 1 129
-4 14 -12 26 -18 28 -8 3 -7 -13 4 -53z"/>
<path d="M291 139 c-1 -9 8 -41 18 -72 11 -30 17 -58 14 -61 -4 -3 1 -6 10 -6
15 0 14 7 -7 63 -38 101 -34 94 -35 76z"/>
<path d="M1345 97 c-38 -53 -66 -97 -60 -97 7 0 98 131 94 135 -2 2 -17 -15
-34 -38z"/>
<path d="M3862 101 c13 -16 30 -32 38 -36 8 -3 -1 10 -19 29 -42 44 -51 46
-19 7z"/>
<path d="M1920 100 c-8 -5 -10 -10 -5 -10 6 0 17 5 25 10 8 5 11 10 5 10 -5 0
-17 -5 -25 -10z"/>
<path d="M3840 85 c13 -14 26 -25 28 -25 3 0 -5 11 -18 25 -13 14 -26 25 -28
25 -3 0 5 -11 18 -25z"/>
<path d="M247 49 c-28 -49 -28 -49 -6 -49 12 0 20 3 16 6 -3 3 1 24 9 46 8 23
13 42 11 44 -1 2 -15 -19 -30 -47z"/>
<path d="M1637 53 c-4 -23 -13 -44 -19 -46 -8 -3 -6 -6 4 -6 17 -1 35 54 26
81 -3 7 -8 -6 -11 -29z"/>
<path d="M3180 80 c-8 -5 -28 -10 -44 -10 -18 0 -38 -10 -53 -26 -13 -15 -30
-23 -38 -20 -8 3 -15 1 -15 -5 0 -6 -5 -7 -12 -3 -7 5 -8 3 -4 -5 9 -13 246
-13 246 0 0 11 -70 16 -71 4 0 -5 -5 0 -11 13 -9 18 -7 26 7 42 20 22 18 25
-5 10z m-20 -40 c0 -5 -4 -10 -10 -10 -5 0 -10 5 -10 10 0 6 5 10 10 10 6 0
10 -4 10 -10z"/>
<path d="M1932 45 c-28 -20 -52 -37 -52 -38 0 -2 9 -3 19 -3 11 0 18 3 15 7
-2 4 4 10 14 13 17 6 72 56 61 56 -2 0 -28 -16 -57 -35z"/>
<path d="M424 40 c3 -14 6 -28 6 -32 0 -5 7 -8 15 -8 20 0 19 10 -6 40 l-21
25 6 -25z"/>
</g>
</svg>
